<mxfile host="app.diagrams.net" modified="2021-08-05T10:20:39.167Z" agent="5.0 (X11; Linux x86_64) AppleWebKit/537.36 (KHTML, like Gecko) Chrome/91.0.4472.114 Safari/537.36" etag="MFLEXFh-KFT6RdOhW_UK" version="14.9.4" type="github">
  <diagram id="yK7WY8yQePAWrQRKaD2J" name="Page-1">
    <mxGraphModel dx="552" dy="760" grid="1" gridSize="10" guides="1" tooltips="1" connect="1" arrows="1" fold="1" page="1" pageScale="1" pageWidth="827" pageHeight="1169" math="0" shadow="0">
      <root>
        <mxCell id="0" />
        <mxCell id="1" parent="0" />
        <mxCell id="PDer8FV1GQ8zQtc7awcl-1" value="Vertical Container" style="swimlane;fontSize=16;" vertex="1" parent="1">
          <mxGeometry x="190" y="290" width="200" height="530" as="geometry" />
        </mxCell>
        <mxCell id="PDer8FV1GQ8zQtc7awcl-4" value="&lt;font color=&quot;#666666&quot; size=&quot;1&quot;&gt;&lt;b style=&quot;font-size: 18px&quot;&gt;下单&lt;/b&gt;&lt;/font&gt;" style="rounded=1;whiteSpace=wrap;html=1;fontSize=16;fillColor=#fff2cc;strokeColor=#d6b656;strokeWidth=3;" vertex="1" parent="PDer8FV1GQ8zQtc7awcl-1">
          <mxGeometry x="30" y="170" width="140" height="30" as="geometry" />
        </mxCell>
        <mxCell id="PDer8FV1GQ8zQtc7awcl-23" value="" style="edgeStyle=orthogonalEdgeStyle;rounded=0;orthogonalLoop=1;jettySize=auto;html=1;fontSize=16;strokeWidth=2;" edge="1" parent="PDer8FV1GQ8zQtc7awcl-1" source="PDer8FV1GQ8zQtc7awcl-8" target="PDer8FV1GQ8zQtc7awcl-19">
          <mxGeometry relative="1" as="geometry" />
        </mxCell>
        <mxCell id="PDer8FV1GQ8zQtc7awcl-8" value="&lt;font color=&quot;#666666&quot; size=&quot;1&quot;&gt;&lt;b style=&quot;font-size: 18px&quot;&gt;收货&lt;/b&gt;&lt;/font&gt;" style="rounded=1;whiteSpace=wrap;html=1;fontSize=16;fillColor=#fff2cc;strokeColor=#d6b656;strokeWidth=3;" vertex="1" parent="PDer8FV1GQ8zQtc7awcl-1">
          <mxGeometry x="30" y="240" width="140" height="30" as="geometry" />
        </mxCell>
        <mxCell id="PDer8FV1GQ8zQtc7awcl-13" value="" style="edgeStyle=orthogonalEdgeStyle;rounded=0;orthogonalLoop=1;jettySize=auto;html=1;fontSize=16;strokeWidth=2;" edge="1" parent="PDer8FV1GQ8zQtc7awcl-1" source="PDer8FV1GQ8zQtc7awcl-9" target="PDer8FV1GQ8zQtc7awcl-12">
          <mxGeometry relative="1" as="geometry" />
        </mxCell>
        <mxCell id="PDer8FV1GQ8zQtc7awcl-9" value="&lt;font color=&quot;#666666&quot; size=&quot;1&quot;&gt;&lt;b style=&quot;font-size: 16px&quot;&gt;浏览商品列表&lt;/b&gt;&lt;/font&gt;" style="rounded=1;whiteSpace=wrap;html=1;fontSize=16;fillColor=#fff2cc;strokeColor=#d6b656;strokeWidth=3;" vertex="1" parent="PDer8FV1GQ8zQtc7awcl-1">
          <mxGeometry x="30" y="50" width="140" height="30" as="geometry" />
        </mxCell>
        <mxCell id="PDer8FV1GQ8zQtc7awcl-14" value="" style="edgeStyle=orthogonalEdgeStyle;rounded=0;orthogonalLoop=1;jettySize=auto;html=1;fontSize=16;strokeWidth=2;" edge="1" parent="PDer8FV1GQ8zQtc7awcl-1" source="PDer8FV1GQ8zQtc7awcl-12">
          <mxGeometry relative="1" as="geometry">
            <mxPoint x="100" y="170" as="targetPoint" />
          </mxGeometry>
        </mxCell>
        <mxCell id="PDer8FV1GQ8zQtc7awcl-12" value="&lt;font color=&quot;#666666&quot; size=&quot;1&quot;&gt;&lt;b style=&quot;font-size: 15px&quot;&gt;浏览商品详情&lt;/b&gt;&lt;/font&gt;" style="rounded=1;whiteSpace=wrap;html=1;fontSize=16;fillColor=#fff2cc;strokeColor=#d6b656;strokeWidth=3;" vertex="1" parent="PDer8FV1GQ8zQtc7awcl-1">
          <mxGeometry x="30" y="100" width="140" height="30" as="geometry" />
        </mxCell>
        <mxCell id="PDer8FV1GQ8zQtc7awcl-19" value="&lt;font color=&quot;#666666&quot; style=&quot;font-size: 18px;&quot;&gt;&lt;span style=&quot;font-size: 18px;&quot;&gt;&lt;b style=&quot;font-size: 18px;&quot;&gt;申请售后&lt;/b&gt;&lt;/span&gt;&lt;/font&gt;" style="rounded=1;whiteSpace=wrap;html=1;fontSize=18;fillColor=#fff2cc;strokeColor=#d6b656;strokeWidth=3;" vertex="1" parent="PDer8FV1GQ8zQtc7awcl-1">
          <mxGeometry x="30" y="310" width="140" height="30" as="geometry" />
        </mxCell>
        <mxCell id="PDer8FV1GQ8zQtc7awcl-22" value="&lt;font color=&quot;#666666&quot; style=&quot;font-size: 18px;&quot;&gt;&lt;b style=&quot;font-size: 18px;&quot;&gt;退货&lt;/b&gt;&lt;/font&gt;" style="rounded=1;whiteSpace=wrap;html=1;fontSize=18;fillColor=#fff2cc;strokeColor=#d6b656;strokeWidth=3;" vertex="1" parent="PDer8FV1GQ8zQtc7awcl-1">
          <mxGeometry x="30" y="390" width="140" height="30" as="geometry" />
        </mxCell>
        <mxCell id="PDer8FV1GQ8zQtc7awcl-27" value="&lt;font color=&quot;#666666&quot; style=&quot;font-size: 18px&quot;&gt;&lt;b style=&quot;font-size: 18px&quot;&gt;售后结束&lt;/b&gt;&lt;/font&gt;" style="rounded=1;whiteSpace=wrap;html=1;fontSize=18;fillColor=#fff2cc;strokeColor=#d6b656;strokeWidth=3;" vertex="1" parent="PDer8FV1GQ8zQtc7awcl-1">
          <mxGeometry x="30" y="450" width="140" height="30" as="geometry" />
        </mxCell>
        <mxCell id="PDer8FV1GQ8zQtc7awcl-2" value="用户" style="swimlane;fontSize=16;fillColor=#dae8fc;strokeColor=#6c8ebf;strokeWidth=3;" vertex="1" parent="1">
          <mxGeometry x="190" y="290" width="200" height="530" as="geometry" />
        </mxCell>
        <mxCell id="PDer8FV1GQ8zQtc7awcl-3" value="商家" style="swimlane;startSize=23;fontSize=16;fillColor=#dae8fc;strokeColor=#6c8ebf;strokeWidth=3;" vertex="1" parent="1">
          <mxGeometry x="390" y="290" width="200" height="530" as="geometry" />
        </mxCell>
        <mxCell id="PDer8FV1GQ8zQtc7awcl-17" value="" style="edgeStyle=orthogonalEdgeStyle;rounded=0;orthogonalLoop=1;jettySize=auto;html=1;fontSize=16;strokeWidth=2;" edge="1" parent="PDer8FV1GQ8zQtc7awcl-3" source="PDer8FV1GQ8zQtc7awcl-6" target="PDer8FV1GQ8zQtc7awcl-7">
          <mxGeometry relative="1" as="geometry" />
        </mxCell>
        <mxCell id="PDer8FV1GQ8zQtc7awcl-6" value="&lt;font style=&quot;font-size: 18px&quot;&gt;&lt;font color=&quot;#666666&quot; style=&quot;font-size: 18px&quot;&gt;&lt;b&gt;接单&lt;/b&gt;&lt;/font&gt;&lt;/font&gt;" style="rounded=1;whiteSpace=wrap;html=1;fontSize=16;fillColor=#fff2cc;strokeColor=#d6b656;strokeWidth=3;" vertex="1" parent="PDer8FV1GQ8zQtc7awcl-3">
          <mxGeometry x="30" y="170" width="140" height="30" as="geometry" />
        </mxCell>
        <mxCell id="PDer8FV1GQ8zQtc7awcl-7" value="&lt;font color=&quot;#666666&quot; style=&quot;font-size: 18px;&quot;&gt;&lt;span style=&quot;font-size: 18px;&quot;&gt;&lt;b style=&quot;font-size: 18px;&quot;&gt;发货&lt;/b&gt;&lt;/span&gt;&lt;/font&gt;" style="rounded=1;whiteSpace=wrap;html=1;fontSize=18;fillColor=#fff2cc;strokeColor=#d6b656;strokeWidth=3;" vertex="1" parent="PDer8FV1GQ8zQtc7awcl-3">
          <mxGeometry x="30" y="240" width="140" height="30" as="geometry" />
        </mxCell>
        <mxCell id="PDer8FV1GQ8zQtc7awcl-25" value="" style="edgeStyle=orthogonalEdgeStyle;rounded=0;orthogonalLoop=1;jettySize=auto;html=1;fontSize=18;strokeWidth=2;" edge="1" parent="PDer8FV1GQ8zQtc7awcl-3" source="PDer8FV1GQ8zQtc7awcl-20" target="PDer8FV1GQ8zQtc7awcl-21">
          <mxGeometry relative="1" as="geometry" />
        </mxCell>
        <mxCell id="PDer8FV1GQ8zQtc7awcl-20" value="&lt;font color=&quot;#666666&quot; style=&quot;font-size: 18px;&quot;&gt;&lt;span style=&quot;font-size: 18px;&quot;&gt;&lt;b style=&quot;font-size: 18px;&quot;&gt;通过申请&lt;/b&gt;&lt;/span&gt;&lt;/font&gt;" style="rounded=1;whiteSpace=wrap;html=1;fontSize=18;fillColor=#fff2cc;strokeColor=#d6b656;strokeWidth=3;" vertex="1" parent="PDer8FV1GQ8zQtc7awcl-3">
          <mxGeometry x="30" y="310" width="140" height="30" as="geometry" />
        </mxCell>
        <mxCell id="PDer8FV1GQ8zQtc7awcl-21" value="&lt;font color=&quot;#666666&quot; style=&quot;font-size: 18px;&quot;&gt;&lt;b style=&quot;font-size: 18px;&quot;&gt;退款&lt;/b&gt;&lt;/font&gt;" style="rounded=1;whiteSpace=wrap;html=1;fontSize=18;fillColor=#fff2cc;strokeColor=#d6b656;strokeWidth=3;" vertex="1" parent="PDer8FV1GQ8zQtc7awcl-3">
          <mxGeometry x="30" y="390" width="140" height="30" as="geometry" />
        </mxCell>
        <mxCell id="PDer8FV1GQ8zQtc7awcl-28" value="&lt;font color=&quot;#666666&quot; style=&quot;font-size: 18px&quot;&gt;&lt;b style=&quot;font-size: 18px&quot;&gt;数据统计&lt;/b&gt;&lt;/font&gt;" style="rounded=1;whiteSpace=wrap;html=1;fontSize=18;fillColor=#fff2cc;strokeColor=#d6b656;strokeWidth=3;" vertex="1" parent="PDer8FV1GQ8zQtc7awcl-3">
          <mxGeometry x="30" y="490" width="140" height="30" as="geometry" />
        </mxCell>
        <mxCell id="PDer8FV1GQ8zQtc7awcl-16" value="" style="edgeStyle=orthogonalEdgeStyle;rounded=0;orthogonalLoop=1;jettySize=auto;html=1;fontSize=16;strokeWidth=2;" edge="1" parent="1" source="PDer8FV1GQ8zQtc7awcl-4" target="PDer8FV1GQ8zQtc7awcl-6">
          <mxGeometry relative="1" as="geometry" />
        </mxCell>
        <mxCell id="PDer8FV1GQ8zQtc7awcl-18" value="" style="edgeStyle=orthogonalEdgeStyle;rounded=0;orthogonalLoop=1;jettySize=auto;html=1;fontSize=16;strokeWidth=2;" edge="1" parent="1" source="PDer8FV1GQ8zQtc7awcl-7" target="PDer8FV1GQ8zQtc7awcl-8">
          <mxGeometry relative="1" as="geometry" />
        </mxCell>
        <mxCell id="PDer8FV1GQ8zQtc7awcl-24" value="" style="edgeStyle=orthogonalEdgeStyle;rounded=0;orthogonalLoop=1;jettySize=auto;html=1;fontSize=18;strokeWidth=2;" edge="1" parent="1" source="PDer8FV1GQ8zQtc7awcl-19" target="PDer8FV1GQ8zQtc7awcl-20">
          <mxGeometry relative="1" as="geometry" />
        </mxCell>
        <mxCell id="PDer8FV1GQ8zQtc7awcl-26" value="" style="endArrow=classic;html=1;fontSize=18;strokeWidth=2;" edge="1" parent="1">
          <mxGeometry width="50" height="50" relative="1" as="geometry">
            <mxPoint x="490" y="650" as="sourcePoint" />
            <mxPoint x="290" y="680" as="targetPoint" />
            <Array as="points">
              <mxPoint x="290" y="650" />
            </Array>
          </mxGeometry>
        </mxCell>
        <mxCell id="PDer8FV1GQ8zQtc7awcl-30" value="" style="edgeStyle=orthogonalEdgeStyle;rounded=0;orthogonalLoop=1;jettySize=auto;html=1;fontSize=18;strokeWidth=2;" edge="1" parent="1" source="PDer8FV1GQ8zQtc7awcl-21">
          <mxGeometry relative="1" as="geometry">
            <mxPoint x="360" y="760" as="targetPoint" />
            <Array as="points">
              <mxPoint x="490" y="760" />
            </Array>
          </mxGeometry>
        </mxCell>
        <mxCell id="PDer8FV1GQ8zQtc7awcl-31" value="" style="endArrow=classic;html=1;fontSize=18;strokeWidth=2;exitX=0.5;exitY=1;exitDx=0;exitDy=0;entryX=0;entryY=0.5;entryDx=0;entryDy=0;" edge="1" parent="1" source="PDer8FV1GQ8zQtc7awcl-27" target="PDer8FV1GQ8zQtc7awcl-28">
          <mxGeometry width="50" height="50" relative="1" as="geometry">
            <mxPoint x="350" y="680" as="sourcePoint" />
            <mxPoint x="400" y="630" as="targetPoint" />
            <Array as="points">
              <mxPoint x="290" y="795" />
            </Array>
          </mxGeometry>
        </mxCell>
      </root>
    </mxGraphModel>
  </diagram>
</mxfile>
